<?xml version="1.0" standalone="no"?>
<!DOCTYPE svg PUBLIC "-//W3C//DTD SVG 20010904//EN"
 "http://www.w3.org/TR/2001/REC-SVG-20010904/DTD/svg10.dtd">
<svg version="1.0" xmlns="http://www.w3.org/2000/svg"
 width="512.000000pt" height="512.000000pt" viewBox="0 0 512.000000 512.000000"
 preserveAspectRatio="xMidYMid meet">
<metadata>
Created by potrace 1.14, written by Peter Selinger 2001-2017
</metadata>
<g transform="translate(0.000000,512.000000) scale(0.100000,-0.100000)"
fill="#000000" stroke="none">
<path d="M1485 4481 c-108 -27 -200 -119 -229 -228 -10 -39 -13 -385 -12
-1713 l1 -1665 22 -48 c41 -89 109 -151 199 -181 46 -15 141 -16 1115 -14
l1064 3 52 29 c69 38 130 105 156 169 21 52 21 57 23 1706 1 1287 -1 1666 -11
1708 -22 95 -81 166 -175 211 l-55 27 -1060 2 c-583 0 -1073 -2 -1090 -6z
m1592 -1036 c138 -69 256 -131 261 -138 19 -23 25 -68 12 -93 -12 -22 -33 -34
-70 -40 -8 -2 -100 40 -204 91 -104 52 -191 93 -193 92 -1 -2 -3 -309 -3 -683
-1 -713 -1 -725 -46 -819 -10 -22 -24 -46 -31 -53 -7 -7 -13 -17 -13 -22 0
-23 -127 -131 -193 -164 -105 -53 -164 -65 -292 -62 -131 4 -211 26 -303 86
-151 97 -232 234 -238 401 -5 130 34 233 125 331 110 119 262 182 441 182 145
0 250 -35 353 -116 l37 -30 0 557 0 556 25 24 c14 15 36 25 52 25 16 0 137
-54 280 -125z"/>
<path d="M2220 2384 c-153 -35 -247 -117 -285 -248 -44 -150 37 -312 190 -382
68 -32 83 -35 176 -39 132 -7 256 40 333 126 128 141 103 361 -52 474 -91 66
-246 96 -362 69z"/>
<path d="M962 4168 c-109 -33 -191 -125 -212 -235 -8 -41 -10 -451 -8 -1413
l3 -1355 27 -51 c32 -61 89 -118 145 -145 48 -23 144 -41 157 -29 10 10 13
3226 3 3237 -13 12 -58 9 -115 -9z"/>
<path d="M4050 4183 c-13 -3 -15 -191 -14 -1619 0 -1299 3 -1617 13 -1624 30
-18 143 14 200 57 51 39 69 61 99 123 l27 55 0 1390 0 1390 -27 50 c-33 62
-88 118 -144 145 -42 21 -126 38 -154 33z"/>
<path d="M533 3856 c-77 -24 -143 -83 -185 -166 l-23 -45 0 -1085 0 -1085 23
-46 c41 -82 119 -147 210 -174 l22 -6 0 1310 c0 721 -1 1311 -2 1310 -2 0 -22
-6 -45 -13z"/>
<path d="M4540 2559 l0 -1309 28 6 c81 20 162 88 204 172 l23 47 2 1066 c2
753 0 1076 -8 1100 -22 68 -42 101 -82 141 -46 44 -74 61 -129 76 l-38 10 0
-1309z"/>
</g>
</svg>
